<?xml version="1.0" standalone="no"?><!DOCTYPE svg PUBLIC "-//W3C//DTD SVG 1.1//EN" "http://www.w3.org/Graphics/SVG/1.1/DTD/svg11.dtd"><svg class="icon" width="200px" height="200.00px" viewBox="0 0 1024 1024" version="1.1" xmlns="http://www.w3.org/2000/svg"><path d="M936.77037 510.482963L553.718519 127.431111c-8.343704-8.343704-21.238519-8.343704-29.582223 0L141.084444 510.482963c-6.068148 8.343704-6.068148 21.238519 0 27.306667 8.343704 8.343704 21.238519 8.343704 29.582223 2.275555l48.545185-48.545185V887.466667c0 12.894815 8.343704 21.238519 21.238518 21.238518h212.385186c12.894815 0 21.238519-8.343704 21.238518-21.238518V610.607407h127.431111V887.466667c0 12.894815 8.343704 21.238519 21.238519 21.238518h212.385185c12.894815 0 21.238519-8.343704 21.238518-21.238518V490.761481l48.545186 48.545186c8.343704 8.343704 21.238519 8.343704 29.582222 0 10.619259-7.585185 10.619259-20.48 2.275555-28.823704z m-121.362963 354.986667H644.740741V588.61037c0-12.894815-8.343704-21.238519-21.238519-21.238518H453.594074c-12.894815 0-21.238519 8.343704-21.238518 21.238518v276.85926H262.447407v-417.185186L538.548148 172.183704l276.859259 276.859259v416.426667z" fill="#e8884d" /></svg>