<?xml version="1.0" standalone="no"?><!DOCTYPE svg PUBLIC "-//W3C//DTD SVG 1.1//EN" "http://www.w3.org/Graphics/SVG/1.1/DTD/svg11.dtd"><svg class="icon" width="200px" height="199.80px" viewBox="0 0 1025 1024" version="1.1" xmlns="http://www.w3.org/2000/svg"><path d="M1013.262379 544.995c-3.985 3.861-9.09 5.729-14.321 5.729-5.293 0-10.772-2.117-14.695-6.352l-64.824-67.408 0 525.474c0 11.208-9.154 20.363-20.487 20.363L632.601379 1022.801c-11.271 0-20.362-9.155-20.362-20.363 0-11.458 9.153-20.55 20.362-20.55L878.260379 981.888 878.260379 434.122 509.865379 50.19 141.220379 434.122l0 547.766 225.172 0 0-307.12c0-11.458 9.186-20.611 20.519-20.611l245.69 0c11.396 0 20.549 9.277 20.549 20.611 0 11.333-9.153 20.549-20.549 20.549L407.522379 695.317l0 307.121c0 11.208-9.185 20.363-20.611 20.363L120.701379 1022.801c-11.301 0-20.61-9.155-20.61-20.363L100.091379 476.903l-64.762 67.534c-7.846 8.156-20.862 8.405-29.019 0.559-8.158-7.846-8.438-20.829-0.654-29.018L494.950379 6.259C498.750379 2.241 504.260379 0 509.865379 0s10.897 2.242 14.727 6.321l489.296 509.72C1021.731379 524.228 1021.482379 537.213 1013.262379 544.995L1013.262379 544.995z" /></svg>